<svg aria-hidden="true" style="position: absolute; width: 0; height: 0; overflow: hidden;" version="1.1" xmlns="http://www.w3.org/2000/svg" xmlns:xlink="http://www.w3.org/1999/xlink">
<defs>
<symbol id="etsy" viewBox="0 0 67 32">
<path fill="#fff" style="fill: var(--color1, #fff)" d="M0.801 0.111h65.271v30.965h-65.271v-30.965z"></path>
<path fill="#999" style="fill: var(--color2, #999)" d="M7.801 11.296v-8.749c0-0.324 0.032-0.519 0.584-0.519h7.421c1.296 0 2.009 1.102 2.528 3.176l0.421 1.653h1.264c0.227-4.699 0.421-6.74 0.421-6.74s-3.176 0.356-5.055 0.356h-9.494l-5.088-0.162v1.361l1.718 0.324c1.199 0.227 1.49 0.486 1.588 1.588 0 0 0.097 3.24 0.097 8.588s-0.097 8.555-0.097 8.555c0 0.972-0.389 1.328-1.588 1.556l-1.718 0.324v1.36l5.088-0.162h8.49c1.912 0 6.351 0.162 6.351 0.162 0.097-1.167 0.745-6.449 0.843-7.032h-1.199l-1.264 2.884c-1.005 2.268-2.463 2.43-4.083 2.43h-4.829c-1.62 0-2.398-0.648-2.398-2.041v-7.389c0 0 3.532 0 4.763 0.097 0.908 0.065 1.458 0.324 1.75 1.588l0.389 1.685h1.393l-0.097-4.246 0.194-4.277h-1.393l-0.453 1.879c-0.292 1.231-0.486 1.459-1.75 1.588-1.425 0.162-4.796 0.13-4.796 0.13v0.032l0.001-0.001zM27.017 3.454c-0.454 2.009-0.907 3.564-2.495 4.602-0.972 0.648-1.945 0.874-2.333 0.907v1.231h2.884v9.948c0 2.787 1.847 4.148 4.31 4.148 1.912 0 3.888-0.81 4.569-2.496l-0.681-0.875c-0.324 0.551-1.361 1.361-2.657 1.361-1.426 0-2.203-0.972-2.203-3.435v-8.782l4.796 0.357 0.259-2.204-5.055 0.195v-4.926l-1.394-0.032zM37.257 18.756l-1.231 0.032c0.065 0.713 0.097 1.62 0.097 2.463 0 0.875-0.032 1.685-0.097 2.074 0 0 2.463 0.907 4.958 0.907 3.37 0 6.060-1.62 6.060-4.796 0-5.443-8.166-4.633-8.166-8.296 0-1.523 1.361-2.106 2.852-2.106 1.167 0 2.139 0.421 2.333 1.037l0.81 2.43 1.199-0.065c0.097-1.296 0.162-2.787 0.356-3.986-1.037-0.454-3.209-0.713-4.569-0.713-3.176 0-5.736 1.394-5.736 4.505 0 5.412 7.971 4.31 7.971 8.296 0 1.425-0.875 2.43-2.852 2.43-1.814 0-2.722-0.939-3.078-1.88l-0.909-2.333zM56.789 22.499c-1.876 5.241-4.173 6.598-6.243 6.598-0.874 0-1.294-0.389-1.424-1.002l-0.485-2.524-1.359 0.065c-0.259 1.488-0.517 3.138-0.873 4.497 0.809 0.614 2.167 0.938 3.234 0.938 2.233 0 5.629-0.292 8.733-7.666l5.208-12.291c0.421-1.003 0.582-1.1 1.811-1.586l0.679-0.258v-1.132l-3.073 0.162-3.299-0.162v1.132l0.84 0.258c0.841 0.259 1.23 0.583 1.23 1.165 0 0.291-0.097 0.582-0.26 1.035-0.485 1.23-3.493 8.54-4.301 10.093l0.808-0.292c-1.423-3.526-3.59-9.413-3.913-10.415-0.065-0.194-0.097-0.356-0.097-0.518 0-0.517 0.356-0.938 1.132-1.099l1.068-0.226v-1.132l-4.432 0.162-3.526-0.162v1.132l0.582 0.194c0.809 0.259 1.003 0.485 1.488 1.617 2.684 6.146 3.946 9.51 5.66 13.909l0.81-2.491z"></path>
</symbol>
<symbol id="tiktok" viewBox="0 0 33 32">
<path fill="#fff" style="fill: var(--color1, #fff)" opacity="0.4" d="M0.617 0.335h31.512v31.512h-31.512v-31.512z"></path>
<path fill="#010101" style="fill: var(--color3, #010101)" opacity="0.4" d="M3.768 0.335h25.21c1.741 0 3.151 1.411 3.151 3.151v25.21c0 1.741-1.411 3.151-3.151 3.151h-25.21c-1.74 0-3.151-1.411-3.151-3.151v-25.21c0-1.74 1.411-3.151 3.151-3.151z"></path>
<path fill="#c1c9cf" style="fill: var(--color4, #c1c9cf)" opacity="0.4" d="M20.404 29.326c0.959 0 1.736-0.771 1.736-1.722s-0.777-1.722-1.736-1.722h-0.262c0.959 0 1.736 0.771 1.736 1.722s-0.777 1.722-1.736 1.722h0.262z"></path>
<path fill="#c1c9cf" style="fill: var(--color4, #c1c9cf)" opacity="0.4" d="M20.119 25.881h-0.262c-0.959 0-1.736 0.771-1.736 1.722s0.777 1.722 1.736 1.722h0.262c-0.959 0-1.736-0.771-1.736-1.722s0.777-1.722 1.736-1.722z"></path>
<path fill="#010101" style="fill: var(--color3, #010101)" opacity="0.4" d="M20.131 28.441c0.466 0 0.844-0.375 0.844-0.837s-0.378-0.837-0.844-0.837c-0.466 0-0.844 0.375-0.844 0.837s0.378 0.837 0.844 0.837z"></path>
<path fill="#fff" style="fill: var(--color1, #fff)" opacity="0.4" d="M6.919 25.103v0.873h1.022v3.326h1.023v-3.303h0.832l0.285-0.896h-3.163zM15.291 25.103v0.873h1.023v3.326h1.023v-3.303h0.832l0.285-0.896h-3.163zM10.273 25.599c0-0.273 0.223-0.495 0.499-0.495s0.5 0.222 0.5 0.495c0 0.274-0.223 0.495-0.5 0.495s-0.499-0.222-0.499-0.495zM10.273 26.448h0.999v2.854h-0.999v-2.854zM11.7 25.103v4.199h0.999v-1.085l0.309-0.283 0.975 1.392h1.070l-1.403-2.029 1.26-1.227h-1.213l-0.999 0.991v-1.958h-0.999zM22.473 25.103v4.199h0.999v-1.085l0.309-0.283 0.975 1.392h1.070l-1.403-2.029 1.261-1.227h-1.213l-0.999 0.991v-1.958h-0.999z"></path>
<path fill="#c1c9cf" style="fill: var(--color4, #c1c9cf)" opacity="0.4" d="M20.932 10.568c1.38 0.986 3.069 1.565 4.895 1.565v-3.511c-0.346 0-0.69-0.036-1.028-0.108v2.763c-1.825 0-3.515-0.58-4.895-1.566v7.164c0 3.584-2.907 6.489-6.492 6.489-1.338 0-2.581-0.404-3.614-1.098 1.179 1.205 2.823 1.952 4.642 1.952 3.586 0 6.492-2.905 6.492-6.489v-7.164h-0zM22.2 7.026c-0.705-0.77-1.168-1.765-1.268-2.865v-0.452h-0.974c0.245 1.398 1.081 2.592 2.242 3.316zM12.065 19.519c-0.394-0.516-0.607-1.148-0.606-1.797 0-1.639 1.33-2.968 2.97-2.968 0.306-0 0.61 0.047 0.901 0.139v-3.589c-0.34-0.047-0.684-0.066-1.027-0.059v2.793c-0.291-0.092-0.595-0.139-0.901-0.139-1.64 0-2.97 1.329-2.97 2.968 0 1.159 0.665 2.163 1.634 2.651z"></path>
<path fill="#fff" style="fill: var(--color1, #fff)" opacity="0.4" d="M19.905 9.713c1.38 0.986 3.070 1.566 4.895 1.566v-2.763c-1.019-0.217-1.921-0.749-2.599-1.489-1.161-0.724-1.997-1.918-2.242-3.316h-2.559v14.021c-0.006 1.635-1.333 2.958-2.97 2.958-0.964 0-1.821-0.459-2.364-1.171-0.969-0.489-1.634-1.492-1.634-2.651 0-1.639 1.329-2.968 2.97-2.968 0.314 0 0.617 0.049 0.901 0.139v-2.793c-3.522 0.073-6.355 2.949-6.355 6.487 0 1.766 0.706 3.367 1.85 4.537 1.033 0.693 2.276 1.098 3.614 1.098 3.585 0 6.492-2.905 6.492-6.489v-7.164z"></path>
<path fill="#c1c9cf" style="fill: var(--color4, #c1c9cf)" opacity="0.4" d="M24.798 8.516v-0.747c-0.919 0.001-1.819-0.256-2.599-0.742 0.69 0.755 1.598 1.276 2.599 1.489zM19.958 3.71c-0.023-0.134-0.041-0.268-0.054-0.403v-0.451h-3.533v14.022c-0.006 1.634-1.333 2.958-2.97 2.958-0.481 0-0.934-0.114-1.336-0.317 0.543 0.712 1.4 1.171 2.364 1.171 1.637 0 2.964-1.324 2.97-2.958v-14.021h2.559zM14.302 11.245v-0.795c-0.295-0.040-0.593-0.061-0.891-0.060-3.586 0-6.492 2.905-6.492 6.489 0 2.247 1.142 4.227 2.878 5.391-1.145-1.17-1.85-2.771-1.85-4.537 0-3.538 2.833-6.414 6.355-6.487z"></path>
<path fill="#fff" style="fill: var(--color1, #fff)" opacity="0.4" d="M20.142 29.326c0.959 0 1.736-0.771 1.736-1.722s-0.777-1.722-1.736-1.722h-0.024c-0.959 0-1.736 0.771-1.736 1.722s0.777 1.722 1.736 1.722h0.024zM19.286 27.604c0-0.463 0.378-0.837 0.845-0.837s0.844 0.375 0.844 0.837-0.378 0.838-0.844 0.838c-0.466-0-0.845-0.375-0.845-0.838z"></path>
</symbol>
<symbol id="avengers" viewBox="0 0 90 32">
<path fill="#fff" style="fill: var(--color1, #fff)" opacity="0.4" d="M0.591 0.535h89.673v31.136h-89.673v-31.136z"></path>
<path fill="#000" style="fill: var(--color5, #000)" opacity="0.4" d="M30.013 7.95l-3.436 8.323 1.444-8.323h-3.759l-2.39 17.693h4.058l7.942-17.693h-3.859zM35.49 18.172h3.261l0.946-3.139h-3.261l1.17-3.894h3.336l0.971-3.188h-7.12l-5.328 17.693h6.996l1.245-3.358h-3.461l1.245-4.113zM14.234 29.267c-1.955 0-3.796-0.484-5.406-1.338l-0.96 1.939c1.9 0.993 4.066 1.556 6.365 1.556 4.346 0 8.215-2.010 10.713-5.141h-2.967c-2.039 1.852-4.758 2.983-7.746 2.983zM16.644 22.56v1.828l4.601-3.453-4.453-4.092v1.77h-4.75l4.75-11.027v8.125l3.846 3.556 0.096-18.733h-4.209l-15.376 31.039 5.106 0.098 4.126-9.112h6.263zM4.284 23.558c-0.958-1.656-1.506-3.574-1.506-5.618 0-5.694 4.25-10.407 9.785-11.206l1.122-2.266c-7.278 0.285-13.090 6.207-13.090 13.472 0 2.916 0.936 5.616 2.528 7.821l1.161-2.203zM20.631 25.643v-3.342l-3.991 3.342h3.991zM77.388 17.247c0.921 0 1.444-0.535 1.593-1.046l1.817-6.011c0.349-1.168-0.174-2.239-1.792-2.239h-6.846l-5.328 17.693h3.759l2.266-7.544h1.245c0.448 0 0.498 0.316 0.398 0.608l-2.091 6.936h3.759l1.942-6.449c0.398-1.266-0.149-1.85-0.722-1.947zM76.791 11.528l-0.996 3.285c-0.174 0.535-0.498 0.681-0.871 0.681h-1.294l1.419-4.697h1.17c0.573 0 0.722 0.268 0.573 0.73zM48.485 7.95l-2.066 6.839-0.124-6.839h-3.212l-5.328 17.693h3.535l2.166-7.058 0.324 7.058h3.012l5.328-17.693h-3.635zM86.002 11.138h3.286l0.971-3.188h-5.801c-0.896 0-1.792 0.243-2.216 1.485l-2.066 6.863c-0.373 1.29 0 2.142 1.568 2.142h1.992c0.224 0 0.224 0.097 0.174 0.243l-0.871 2.993c-0.149 0.438-0.249 0.608-0.946 0.608h-3.137l-1.021 3.358h6.149c0.772 0 1.593-0.365 1.793-1.071l2.066-6.863c0.523-1.728-0.324-2.458-1.668-2.458h-2.017l1.070-3.602c0.124-0.389 0.398-0.511 0.672-0.511zM56.202 15.032l-0.946 3.139h0.772l-1.369 4.527h-1.27c-0.498 0-0.722-0.195-0.573-0.706l3.112-10.319c0.124-0.438 0.324-0.536 0.722-0.536h3.66l0.971-3.188h-6c-1.195 0-2.017 0.341-2.415 1.655l-3.834 12.752c-0.697 2.336 0.722 3.285 2.415 3.285h2.315l-0.398 1.387 4.182-2.069 2.987-9.929-4.332 0zM64.567 18.172h3.261l0.946-3.139h-3.261l1.17-3.894h3.336l0.971-3.188h-7.12l-5.328 17.693h6.996l1.245-3.358h-3.461l1.245-4.113z"></path>
</symbol>
<symbol id="land-rover" viewBox="0 0 60 32">
<path fill="#fff" style="fill: var(--color1, #fff)" opacity="0.4" d="M-0 0.050h59.143v31.178h-59.143v-31.178z"></path>
<path fill="#c1c9cf" style="fill: var(--color4, #c1c9cf)" opacity="0.4" d="M59.143 15.64c0 8.609-13.241 15.587-29.57 15.587-16.333 0-29.573-6.979-29.573-15.587s13.239-15.587 29.573-15.587c16.329 0 29.57 6.979 29.57 15.587z"></path>
<path fill="#414b47" style="fill: var(--color6, #414b47)" opacity="0.4" d="M57.919 15.627c0 7.906-12.697 14.315-28.357 14.315s-28.358-6.409-28.358-14.315c0-7.906 12.696-14.314 28.358-14.314s28.357 6.409 28.357 14.314zM29.562 2.44c-15.047 0-27.246 5.904-27.246 13.187s12.199 13.187 27.246 13.187c15.047 0 27.245-5.904 27.245-13.187s-12.198-13.187-27.245-13.187z"></path>
<path fill="#414b47" style="fill: var(--color6, #414b47)" opacity="0.4" d="M56.102 15.627c0 6.892-11.882 12.479-26.54 12.479s-26.54-5.587-26.54-12.479c0-6.891 11.882-12.478 26.54-12.478s26.54 5.586 26.54 12.478zM46.571 9.785h-4.552l-0.554 1.593h2.946l-3.361 1.17-0.222 0.646 5.171-1.705 0.571-1.705zM17.55 12.582h-1.854c0 0 1.719-4.605 1.856-4.953 0.245-0.617 0.392-0.574 0.392-0.574h-2.561c0.317 0.152 0.036 0.754 0.036 0.754s-2.051 5.742-2.194 6.029c-0.143 0.287-0.25 0.324-0.25 0.324h4.435l0.62-1.701c-0.053 0.162-0.48 0.121-0.48 0.121zM25.329 14.154h2.089c0 0-0.143-0.213-0.054-0.446 0.124-0.324 1.232-3.356 1.232-3.356l0.482 3.802h1.892l2.481-6.763c0 0 0.102-0.317 0.24-0.317l-2.011-0.006c0 0 0.058 0.233-0.014 0.413s-1.214 3.248-1.214 3.248l-0.446-3.661h-2.159c0 0 0.112 0.179 0.040 0.377-0.058 0.16-2.289 6.317-2.289 6.317s-0.143 0.393-0.268 0.393zM34.88 7.070c0 0 0.178 0.287-0.054 0.951s-2.053 5.599-2.053 5.599-0.143 0.464-0.339 0.554l2.856-0.003c0 0 3.462 0.129 4.534-3.53 0 0 1.357-3.607-2.571-3.571h-2.373zM35.183 12.537c0 0 0.009-0.003 0.33-0.003 0.486 0 1.386-0.108 1.99-1.588 0.994-2.433-0.393-2.351-0.393-2.351h-0.536l-1.392 3.941zM9.783 19.884h4.552l0.554-1.594h-2.946l3.36-1.169 0.223-0.646-5.172 1.705-0.571 1.704zM17.759 22.823c-0.072 0-0.072-0.232-0.072-0.232l0.837-2.233c0 0 1.043 2.057 1.115 2.201s0.035 0.263 0.035 0.263h2.495c-0.238 0-0.483-0.455-0.483-0.455l-1.242-2.241c1.737 0 2.293-1.731 2.293-1.731 0.857-2.752-2.027-2.68-2.027-2.68h-2.951c0.214 0.239 0.047 0.742 0.047 0.742s-1.833 5.267-1.975 5.674c-0.143 0.407-0.405 0.691-0.405 0.691h2.333zM19.528 17.35l-0.484 1.429h0.452c0 0 0.881 0.078 1.206-0.626 0 0 0.38-0.807-0.683-0.807-0.233 0-0.492 0.004-0.492 0.004zM43.576 22.849c-0.178 0.004-0.054-0.435-0.054-0.435l0.747-2.029c0 0 1.007 2.058 1.078 2.202s0.036 0.263 0.036 0.263h2.584c-0.238 0-0.5-0.455-0.5-0.455l-1.243-2.241c1.738 0 2.261-1.669 2.261-1.669 0.913-2.881-1.994-2.742-1.994-2.742h-2.927c0.215 0.239 0.048 0.742 0.048 0.742s-1.909 5.287-2.052 5.694c-0.143 0.408-0.417 0.667-0.417 0.667l2.434 0.004zM45.277 18.805c0 0 0.874 0.067 1.142-0.622 0.316-0.811-0.472-0.79-0.472-0.79h-0.646l-0.476 1.412h0.453zM25.822 22.999c2.576 0 4.108-2.54 4.108-4.362 0-1.911-0.781-3.104-2.566-3.104-2.277 0-3.762 1.737-4.146 3.896-0.352 1.986 0.763 3.569 2.603 3.569zM25.985 21.319c0.642 0.119 1.349-0.346 1.718-1.831 0.559-2.247-0.472-2.266-0.66-2.289-0.57-0.070-1.331 0.59-1.64 1.966-0.142 0.628-0.292 1.991 0.582 2.153zM30.542 15.743c0 0 0.177 0.096 0.177 0.55v6.149c0 0-0.024 0.337-0.151 0.407h1.914c0 0 0-0.144 0.19-0.383s4.165-5.598 4.165-5.598 0.906-1.125 1.144-1.125h-2.739c0 0 0.215 0.144 0.048 0.407s-2.601 3.924-2.601 3.924l0.031-3.692c0 0-0.004-0.592 0.232-0.642l-2.41 0.003zM42.111 17.419l0.619-1.678-4.641 0c0 0 0.166 0.148-0.047 0.746s-2.095 5.694-2.095 5.694-0.333 0.67-0.428 0.67h4.783l0.571-1.698c0 0-0.071 0.095-0.523 0.095h-2.023l0.429-1.148h1.57c0 0 0.334-0.024 0.405 0.072l0.642-1.815c0 0-0.047 0.164-0.476 0.164h-1.523l0.453-1.268h1.927c0 0 0.262-0.036 0.357 0.167zM17.918 14.16h2.289c0 0-0.007-0.177 0.053-0.292 0.109-0.207 0.393-0.708 0.393-0.708h2.304l0.004 0.624c0 0 0.012 0.215-0.158 0.381h2.285c0 0-0.17-0.096-0.201-0.378l-0.287-6.245c0 0-0.012-0.399 0.177-0.483h-2.267c0 0 0.159 0.197-0.145 0.646s-4.175 6.221-4.175 6.221-0.077 0.148-0.273 0.233zM22.913 9.477l-1.272 2.081h1.291l-0.018-2.081z"></path>
</symbol>
<symbol id="Menu" viewBox="0 0 49 32">
<path stroke-linejoin="round" stroke-linecap="round" stroke-miterlimit="4" stroke-width="4.9231" d="M3.692 16.578h43.077"></path>
<path stroke-linejoin="round" stroke-linecap="round" stroke-miterlimit="4" stroke-width="4.9231" d="M3.692 28.886h43.077"></path>
<path stroke-linejoin="round" stroke-linecap="round" stroke-miterlimit="4" stroke-width="4.9231" d="M3.692 4.27h43.077"></path>
</symbol>
<symbol id="c" viewBox="0 0 30 32">
<path d="M15.059 0.886c-8.317 0-15.059 6.742-15.059 15.059s6.742 15.059 15.059 15.059 15.059-6.742 15.059-15.059c0-8.317-6.742-15.059-15.059-15.059zM15.059 28.090c-6.712 0-12.144-5.432-12.144-12.145 0-6.712 5.432-12.145 12.144-12.145 6.712 0 12.144 5.432 12.144 12.145 0 6.712-5.432 12.145-12.144 12.145zM21.577 21.953c-0.584 0.59-2.765 2.514-6.319 2.514-5.005 0-8.53-3.73-8.53-8.596 0-4.806 3.66-8.465 8.486-8.465 3.372 0 5.388 1.616 5.926 2.112 0.126 0.116 0.207 0.273 0.229 0.444s-0.018 0.343-0.111 0.487l-1.102 1.707c-0.233 0.361-0.727 0.442-1.063 0.177-0.522-0.411-1.932-1.369-3.747-1.369-2.933 0-4.731 2.145-4.731 4.863 0 2.525 1.633 5.082 4.753 5.082 1.983 0 3.452-1.156 3.991-1.653 0.32-0.295 0.825-0.245 1.082 0.106l1.206 1.65c0.103 0.14 0.152 0.311 0.139 0.484s-0.087 0.335-0.209 0.458z"></path>
</symbol>
<symbol id="logo" viewBox="0 0 29 32">
<path d="M28.765 15.904c0 0.856-0.267 1.69-0.765 2.388s-1.201 1.225-2.012 1.508c-0.219 0.046-0.436 0.103-0.65 0.168-1.485 0.461-2.794 1.361-3.751 2.582s-1.517 2.702-1.604 4.247c-0.017 0.313-0.015 0.627 0.006 0.94-0.081 0.737-0.359 1.439-0.807 2.032s-1.047 1.055-1.736 1.338c-0.689 0.283-1.442 0.376-2.18 0.269s-1.433-0.409-2.013-0.875-1.022-1.079-1.282-1.774c-0.259-0.695-0.325-1.447-0.192-2.176s0.463-1.41 0.952-1.969 1.121-0.977 1.829-1.21c0.161-0.036 0.321-0.079 0.481-0.127 1.532-0.458 2.88-1.383 3.855-2.644s1.527-2.795 1.579-4.385c0.006-0.193 0.006-0.386 0-0.579-0.070-1.563-0.623-3.067-1.584-4.305s-2.284-2.152-3.786-2.615c-0.19-0.060-0.382-0.11-0.576-0.153-0.707-0.243-1.334-0.671-1.816-1.24s-0.801-1.256-0.922-1.99-0.042-1.486 0.231-2.179c0.273-0.692 0.729-1.298 1.32-1.754s1.294-0.744 2.036-0.835 1.495 0.019 2.179 0.319c0.684 0.299 1.275 0.777 1.708 1.383s0.695 1.317 0.756 2.058c-0.008 0.208-0.006 0.42 0 0.625 0.077 1.568 0.64 3.074 1.612 4.311s2.305 2.144 3.816 2.597c0.151 0.045 0.303 0.085 0.456 0.12 0.832 0.271 1.556 0.797 2.069 1.502s0.79 1.553 0.79 2.424z"></path>
<path d="M0.241 26.421c0.055-0.853 0.375-1.667 0.916-2.331s1.274-1.146 2.101-1.378c0.225-0.032 0.447-0.074 0.665-0.128 1.67-0.402 3.155-1.353 4.215-2.698s1.633-3.006 1.627-4.715c0.128-0.73 0.451-1.413 0.936-1.976s1.113-0.986 1.818-1.224c0.706-0.238 1.463-0.283 2.192-0.13s1.403 0.498 1.952 1 0.951 1.141 1.166 1.851c0.214 0.71 0.233 1.464 0.053 2.183s-0.551 1.377-1.074 1.905c-0.523 0.527-1.18 0.905-1.901 1.093-0.169 0.027-0.336 0.060-0.502 0.098-1.558 0.361-2.963 1.199-4.016 2.396s-1.702 2.694-1.855 4.278c-0.019 0.186-0.029 0.374-0.033 0.561-0.076 0.586-0.277 1.149-0.59 1.651s-0.731 0.932-1.225 1.26-1.053 0.547-1.64 0.641c-0.586 0.095-1.186 0.063-1.76-0.093-0.148-0.055-0.296-0.106-0.447-0.15-0.811-0.323-1.499-0.893-1.966-1.629s-0.688-1.598-0.632-2.466z"></path>
</symbol>
<symbol id="analytics" viewBox="0 0 32 32">
<path stroke-linejoin="round" stroke-linecap="round" stroke-miterlimit="4" stroke-width="2.0298" d="M5 20l6.5-6.5M21.5 17.5v0zM14.5 13.5v0z"></path>
<path stroke-linejoin="round" stroke-linecap="round" stroke-miterlimit="4" stroke-width="2.0298" d="M28.5 12c0.828 0 1.5-0.672 1.5-1.5s-0.672-1.5-1.5-1.5c-0.828 0-1.5 0.672-1.5 1.5s0.672 1.5 1.5 1.5z"></path>
<path stroke-linejoin="round" stroke-linecap="round" stroke-miterlimit="4" stroke-width="2.0298" d="M20 20.5c0.828 0 1.5-0.672 1.5-1.5s-0.672-1.5-1.5-1.5c-0.828 0-1.5 0.672-1.5 1.5s0.672 1.5 1.5 1.5z"></path>
<path stroke-linejoin="round" stroke-linecap="round" stroke-miterlimit="4" stroke-width="2.0298" d="M13 13.5c0.828 0 1.5-0.672 1.5-1.5s-0.672-1.5-1.5-1.5c-0.828 0-1.5 0.672-1.5 1.5s0.672 1.5 1.5 1.5z"></path>
<path stroke-linejoin="round" stroke-linecap="round" stroke-miterlimit="4" stroke-width="2.0298" d="M3.5 23c0.828 0 1.5-0.672 1.5-1.5s-0.672-1.5-1.5-1.5c-0.828 0-1.5 0.672-1.5 1.5s0.672 1.5 1.5 1.5z"></path>
</symbol>
<symbol id="accessibility" viewBox="0 0 33 32">
<path stroke-linejoin="round" stroke-linecap="butt" stroke-miterlimit="4" stroke-width="2" d="M17.233 6c1.381 0 2.5-1.119 2.5-2.5s-1.119-2.5-2.5-2.5c-1.381 0-2.5 1.119-2.5 2.5s1.119 2.5 2.5 2.5z"></path>
<path stroke-linejoin="round" stroke-linecap="butt" stroke-miterlimit="4" stroke-width="2" d="M13.997 17.153c0.181-1.129 0.263-2.22-0.031-2.974-0.25-0.649-0.794-1.012-1.45-1.259l-5.783-1.871c-0.75-0.25-1.451-0.669-1.5-1.496-0.063-1.063 0.875-1.75 1.813-1.5 0 0 5.5 1.946 10.188 1.946s10.125-1.938 10.125-1.938c1.125-0.313 1.875 0.563 1.875 1.487 0 0.888-0.687 1.201-1.5 1.496l-5.5 1.994c-0.5 0.188-1.313 0.563-1.625 1.136-0.375 0.672-0.313 1.846-0.131 2.974l0.369 1.852 2.338 10.244c0.175 0.822-0.394 1.59-1.213 1.734s-1.488-0.415-1.731-1.21l-2.347-7.246c-0.113-0.347-0.213-0.699-0.3-1.054l-0.36-1.467-0.331 1.353c-0.105 0.431-0.226 0.858-0.363 1.28l-2.306 7.128c-0.25 0.803-0.906 1.359-1.725 1.216s-1.4-0.974-1.216-1.734l2.337-10.239 0.369-1.852z"></path>
</symbol>
<symbol id="receipt" viewBox="0 0 32 32">
<path stroke-linejoin="round" stroke-linecap="butt" stroke-miterlimit="4" stroke-width="1.9442" d="M10.559 20.414v-17.498l1.92 0.972 1.92-0.972 1.916 0.972 1.942-0.972 1.901 0.972 1.907-0.972 1.916 0.972 1.937-0.972 1.921 0.972 1.919-0.972v13.609"></path>
<path stroke-linejoin="round" stroke-linecap="butt" stroke-miterlimit="4" stroke-width="1.9442" d="M29.759 16.526v6.805c0 1.289-0.506 2.525-1.406 3.437s-2.121 1.424-3.394 1.424v0c-1.273 0-2.494-0.512-3.394-1.424s-1.406-2.148-1.406-3.437v-2.916h-16.32c-0.126-0.001-0.252 0.023-0.369 0.072s-0.223 0.12-0.313 0.211-0.16 0.198-0.208 0.317c-0.048 0.119-0.072 0.245-0.071 0.373 0 3.888 0.404 6.805 4.8 6.805h17.28"></path>
<path stroke-linejoin="round" stroke-linecap="round" stroke-miterlimit="4" stroke-width="1.9442" d="M18.239 13.609h7.68M14.399 8.749v0z"></path>
</symbol>
<symbol id="cash" viewBox="0 0 33 32">
<path stroke-linejoin="round" stroke-linecap="butt" stroke-miterlimit="4" stroke-width="2.0501" d="M3.532 21h26c0.552 0 1-0.448 1-1v-14c0-0.552-0.448-1-1-1h-26c-0.552 0-1 0.448-1 1v14c0 0.552 0.448 1 1 1z"></path>
<path stroke-linejoin="round" stroke-linecap="round" stroke-miterlimit="4" stroke-width="2.0501" d="M6.532 27h20M4.532 24v0z"></path>
<path stroke-linejoin="round" stroke-linecap="round" stroke-miterlimit="4" stroke-width="2.0501" d="M16.532 18c2.761 0 5-2.239 5-5s-2.239-5-5-5-5 2.239-5 5c0 2.761 2.239 5 5 5z"></path>
<path stroke-linejoin="round" stroke-linecap="round" stroke-miterlimit="4" stroke-width="2.0501" d="M2.532 16c0.657 0 1.307 0.129 1.913 0.381s1.158 0.619 1.622 1.084c0.464 0.464 0.833 1.016 1.084 1.622s0.381 1.257 0.381 1.913M30.532 10c-1.326 0-2.598-0.527-3.535-1.464s-1.465-2.209-1.465-3.536l5 5zM2.532 10c0.657 0 1.307-0.129 1.913-0.381s1.158-0.62 1.622-1.084c0.464-0.464 0.833-1.016 1.084-1.622s0.381-1.257 0.381-1.913l-5 5zM30.532 16c-1.326 0-2.598 0.527-3.535 1.464s-1.465 2.209-1.465 3.536l5-5z"></path>
</symbol>
<symbol id="instagram" viewBox="0 0 32 32">
<path d="M16 2.881c4.275 0 4.781 0.019 6.462 0.094 1.563 0.069 2.406 0.331 2.969 0.55 0.744 0.288 1.281 0.638 1.837 1.194 0.563 0.563 0.906 1.094 1.2 1.838 0.219 0.563 0.481 1.412 0.55 2.969 0.075 1.688 0.094 2.194 0.094 6.463s-0.019 4.781-0.094 6.463c-0.069 1.563-0.331 2.406-0.55 2.969-0.288 0.744-0.637 1.281-1.194 1.837-0.563 0.563-1.094 0.906-1.837 1.2-0.563 0.219-1.413 0.481-2.969 0.55-1.688 0.075-2.194 0.094-6.463 0.094s-4.781-0.019-6.463-0.094c-1.563-0.069-2.406-0.331-2.969-0.55-0.744-0.288-1.281-0.637-1.838-1.194-0.563-0.563-0.906-1.094-1.2-1.837-0.219-0.563-0.481-1.413-0.55-2.969-0.075-1.688-0.094-2.194-0.094-6.463s0.019-4.781 0.094-6.463c0.069-1.563 0.331-2.406 0.55-2.969 0.288-0.744 0.638-1.281 1.194-1.838 0.563-0.563 1.094-0.906 1.838-1.2 0.563-0.219 1.412-0.481 2.969-0.55 1.681-0.075 2.188-0.094 6.463-0.094zM16 0c-4.344 0-4.887 0.019-6.594 0.094-1.7 0.075-2.869 0.35-3.881 0.744-1.056 0.412-1.95 0.956-2.837 1.85-0.894 0.888-1.438 1.781-1.85 2.831-0.394 1.019-0.669 2.181-0.744 3.881-0.075 1.713-0.094 2.256-0.094 6.6s0.019 4.887 0.094 6.594c0.075 1.7 0.35 2.869 0.744 3.881 0.413 1.056 0.956 1.95 1.85 2.837 0.887 0.887 1.781 1.438 2.831 1.844 1.019 0.394 2.181 0.669 3.881 0.744 1.706 0.075 2.25 0.094 6.594 0.094s4.888-0.019 6.594-0.094c1.7-0.075 2.869-0.35 3.881-0.744 1.050-0.406 1.944-0.956 2.831-1.844s1.438-1.781 1.844-2.831c0.394-1.019 0.669-2.181 0.744-3.881 0.075-1.706 0.094-2.25 0.094-6.594s-0.019-4.887-0.094-6.594c-0.075-1.7-0.35-2.869-0.744-3.881-0.394-1.063-0.938-1.956-1.831-2.844-0.887-0.887-1.781-1.438-2.831-1.844-1.019-0.394-2.181-0.669-3.881-0.744-1.712-0.081-2.256-0.1-6.6-0.1v0z"></path>
<path d="M16 7.781c-4.537 0-8.219 3.681-8.219 8.219s3.681 8.219 8.219 8.219 8.219-3.681 8.219-8.219c0-4.537-3.681-8.219-8.219-8.219zM16 21.331c-2.944 0-5.331-2.387-5.331-5.331s2.387-5.331 5.331-5.331c2.944 0 5.331 2.387 5.331 5.331s-2.387 5.331-5.331 5.331z"></path>
<path d="M26.462 7.456c0 1.060-0.859 1.919-1.919 1.919s-1.919-0.859-1.919-1.919c0-1.060 0.859-1.919 1.919-1.919s1.919 0.859 1.919 1.919z"></path>
</symbol>
<symbol id="twitter" viewBox="0 0 32 32">
<path d="M32 7.075c-1.175 0.525-2.444 0.875-3.769 1.031 1.356-0.813 2.394-2.1 2.887-3.631-1.269 0.75-2.675 1.3-4.169 1.594-1.2-1.275-2.906-2.069-4.794-2.069-3.625 0-6.563 2.938-6.563 6.563 0 0.512 0.056 1.012 0.169 1.494-5.456-0.275-10.294-2.888-13.531-6.862-0.563 0.969-0.887 2.1-0.887 3.3 0 2.275 1.156 4.287 2.919 5.463-1.075-0.031-2.087-0.331-2.975-0.819 0 0.025 0 0.056 0 0.081 0 3.181 2.263 5.838 5.269 6.437-0.55 0.15-1.131 0.231-1.731 0.231-0.425 0-0.831-0.044-1.237-0.119 0.838 2.606 3.263 4.506 6.131 4.563-2.25 1.762-5.075 2.813-8.156 2.813-0.531 0-1.050-0.031-1.569-0.094 2.913 1.869 6.362 2.95 10.069 2.95 12.075 0 18.681-10.006 18.681-18.681 0-0.287-0.006-0.569-0.019-0.85 1.281-0.919 2.394-2.075 3.275-3.394z"></path>
</symbol>
<symbol id="in" viewBox="0 0 32 32">
<path d="M12 12h5.535v2.837h0.079c0.77-1.381 2.655-2.837 5.464-2.837 5.842 0 6.922 3.637 6.922 8.367v9.633h-5.769v-8.54c0-2.037-0.042-4.657-3.001-4.657-3.005 0-3.463 2.218-3.463 4.509v8.688h-5.767v-18z"></path>
<path d="M2 12h6v18h-6v-18z"></path>
<path d="M8 7c0 1.657-1.343 3-3 3s-3-1.343-3-3c0-1.657 1.343-3 3-3s3 1.343 3 3z"></path>
</symbol>
</defs>
</svg>
